<?xml version="1.0" encoding="UTF-8" standalone="no"?>
<!-- Created with Inkscape (http://www.inkscape.org/) -->

<svg
   xmlns:dc="http://purl.org/dc/elements/1.1/"
   xmlns:cc="http://creativecommons.org/ns#"
   xmlns:rdf="http://www.w3.org/1999/02/22-rdf-syntax-ns#"
   xmlns:svg="http://www.w3.org/2000/svg"
   xmlns="http://www.w3.org/2000/svg"
   xmlns:xlink="http://www.w3.org/1999/xlink"
   xmlns:sodipodi="http://sodipodi.sourceforge.net/DTD/sodipodi-0.dtd"
   xmlns:inkscape="http://www.inkscape.org/namespaces/inkscape"
   width="744.09448819"
   height="1052.3622047"
   id="svg2"
   version="1.1"
   inkscape:version="0.48.4 r9939"
   sodipodi:docname="body.svg">
  <defs
     id="defs4" />
  <sodipodi:namedview
     id="base"
     pagecolor="#ffffff"
     bordercolor="#666666"
     borderopacity="1.0"
     inkscape:pageopacity="0.0"
     inkscape:pageshadow="2"
     inkscape:zoom="0.35"
     inkscape:cx="375"
     inkscape:cy="520"
     inkscape:document-units="px"
     inkscape:current-layer="layer1"
     showgrid="false"
     inkscape:window-width="1538"
     inkscape:window-height="878"
     inkscape:window-x="54"
     inkscape:window-y="-8"
     inkscape:window-maximized="1" />
  <metadata
     id="metadata7">
    <rdf:RDF>
      <cc:Work
         rdf:about="">
        <dc:format>image/svg+xml</dc:format>
        <dc:type
           rdf:resource="http://purl.org/dc/dcmitype/StillImage" />
      </cc:Work>
    </rdf:RDF>
  </metadata>
  <g
     inkscape:label="Layer 1"
     inkscape:groupmode="layer"
     id="layer1">
    <g
       id="layer1-9"
       inkscape:label="Layer 1"
       transform="translate(-260.23071,116.79063)">
      <use
         transform="translate(2.1936241,1.8469906)"
         height="1"
         width="1"
         y="0"
         x="0"
         style="fill:#a4c639;stroke:#ffffff;stroke-width:14.39999962"
         xlink:href="#b"
         id="use2989" />
      <rect
         style="fill:#a4c639;stroke:#ffffff;stroke-width:19.7472229"
         x="496.28125"
         y="527.00598"
         width="131.64815"
         height="364.77509"
         rx="65.824074"
         id="use2997-7" />
      <g
         transform="matrix(2.7426699,0,0,2.7426699,457.14286,148.51751)"
         style="fill:#a4c639;stroke:#ffffff;stroke-width:7.19999981"
         id="a">
        <rect
           x="-58"
           y="138"
           width="48"
           height="133"
           rx="24"
           id="use2997" />
      </g>
      <g
         transform="matrix(2.7426699,0,0,2.7426699,454.94925,146.67051)"
         id="b"
         style="fill:#a4c639">
        <ellipse
           d="m 91,41 c 0,46.391919 -40.742088,84 -91,84 -50.257912,0 -91,-37.608081 -91,-84 0,-46.391919 40.742088,-84 91,-84 50.257912,0 91,37.608081 91,84 z"
           sodipodi:ry="84"
           sodipodi:rx="91"
           sodipodi:cy="41"
           sodipodi:cx="0"
           cx="0"
           cy="41"
           rx="91"
           ry="84"
           id="ellipse3000" />
        <rect
           rx="22"
           height="182"
           width="182"
           y="20"
           x="-91"
           id="rect3002" />
      </g>
      <path
         inkscape:connector-curvature="0"
         d="M 184.52998,270.56632 H 705.63726"
         id="path3006"
         style="fill:#ffffff;stroke:#ffffff;stroke-width:19.7472229" />
      <circle
         transform="matrix(2.7426699,0,0,2.7426699,457.14286,148.51751)"
         d="m -38,0 c 0,2.209139 -1.790861,4 -4,4 -2.209139,0 -4,-1.790861 -4,-4 0,-2.209139 1.790861,-4 4,-4 2.209139,0 4,1.790861 4,4 z"
         sodipodi:ry="4"
         sodipodi:rx="4"
         sodipodi:cy="0"
         sodipodi:cx="-42"
         cy="0"
         cx="-42"
         r="4"
         id="circle3008"
         style="fill:#ffffff;stroke:#ffffff;stroke-width:7.19999981" />
      <circle
         transform="matrix(2.7426699,0,0,2.7426699,457.14286,148.51751)"
         d="m 46,0 c 0,2.209139 -1.790861,4 -4,4 -2.209139,0 -4,-1.790861 -4,-4 0,-2.209139 1.790861,-4 4,-4 2.209139,0 4,1.790861 4,4 z"
         sodipodi:ry="4"
         sodipodi:rx="4"
         sodipodi:cy="0"
         sodipodi:cx="42"
         cy="0"
         cx="42"
         r="4"
         id="circle3010"
         style="fill:#ffffff;stroke:#ffffff;stroke-width:7.19999981" />
      <rect
         id="c-4"
         rx="65.824074"
         height="483.05215"
         width="131.64815"
         y="-64.311073"
         x="724.2774"
         style="fill:#a4c639;stroke:#ffffff;stroke-width:19.7472229" />
      <rect
         transform="matrix(0,1,-1,0,0,0)"
         id="c-45"
         rx="38.681221"
         height="1172.1106"
         width="83.81163"
         y="-1046.286"
         x="-180.52365"
         style="fill:#a4c639;stroke:#ffffff;stroke-width:19.7472229" />
      <rect
         transform="scale(-1,-1)"
         id="c-4-9-4"
         rx="65.824074"
         height="244.77509"
         width="131.64815"
         y="27.291441"
         x="-93.54631"
         style="fill:#a4c639;stroke:#ffffff;stroke-width:19.7472229" />
      <rect
         transform="scale(-1,-1)"
         id="c-4-9-4-1"
         rx="65.824074"
         height="244.77509"
         width="131.64815"
         y="19.53599"
         x="-960.1098"
         style="fill:#a4c639;stroke:#ffffff;stroke-width:19.7472229" />
      <rect
         id="c-4-1"
         rx="65.824074"
         height="483.05215"
         width="131.64815"
         y="-64.311104"
         x="61.617359"
         style="fill:#a4c639;stroke:#ffffff;stroke-width:19.7472229" />
    </g>
    <path
       style="fill:#080a02"
       d="M 95.632702,716.48153 C 89.78393,713.68103 81.409547,707.35074 77.02297,702.41425 l -7.975594,-8.97547 7.975594,7.00746 c 4.386577,3.85411 12.077716,9.07988 17.091174,11.61282 13.131026,6.63405 43.928266,4.34636 66.446306,-4.93583 22.18598,-9.14527 38.39984,-9.14884 61.14386,-0.0133 20.48373,8.22744 48.17766,11.05558 62.37556,6.36987 5.36173,-1.76952 13.60637,-6.21876 18.32128,-9.88719 5.62067,-4.37305 4.9773,-3.37049 -1.86788,2.91138 -18.76128,17.2169 -44.50013,19.03467 -76.33898,5.39129 -25.90634,-11.10112 -38.18584,-11.30687 -62.74536,-1.05131 -26.36334,11.0088 -50.31432,13.06041 -65.816228,5.63774 z m 5.317058,-53.44326 c -12.624836,-3.07348 -24.826697,-10.34373 -28.222708,-16.81596 -2.974104,-5.66813 -2.882116,-5.74706 1.915208,-1.64337 19.439718,16.62957 58.52042,18.97075 78.55352,4.70584 4.17575,-2.97339 11.47555,-6.44527 16.22183,-7.71528 7.12912,-1.90768 7.77196,-1.7593 3.6967,0.85329 -2.71304,1.73931 -9.13738,6.43577 -14.27659,10.43654 -14.92048,11.61588 -36.4413,15.40009 -57.88796,10.17894 z m 141.34409,-0.0713 c -6.68701,-2.14733 -36.33205,-20.97522 -36.33205,-23.075 0,-1.3818 11.23125,3.44003 26.04725,11.18269 10.68677,5.5848 17.74039,7.34125 29.24386,7.28203 19.09943,-0.0983 36.45194,-4.8197 43.45638,-11.82395 4.98581,-4.98587 5.34578,-5.02771 4.51206,-0.5244 -2.25338,12.17183 -46.73408,23.44263 -66.9275,16.95852 z m 133.89487,-47.11714 c -0.18876,-7.34079 5.4569,-16.58164 13.69197,-22.41206 l 8.82474,-6.24811 -8.22603,10.58806 c -4.52429,5.82346 -9.57231,12.98076 -11.21795,15.90515 -1.64563,2.92438 -3.02833,3.8995 -3.07273,2.16696 z m -382.5229462,-14.87666 -8.9182888,-13.30439 8.2472998,5.87259 c 7.08892355,5.04776 13.6067377,17.31382 10.5731682,19.898 -0.5411682,0.46099 -4.9971358,-5.1488 -9.9021792,-12.4662 z m 114.2134562,-8.3986 c 0.6431,-0.64313 13.10497,-3.17623 27.69313,-5.62912 14.58791,-2.4529 30.59546,-6.1296 35.57197,-8.17045 4.97678,-2.04085 9.49947,-3.25976 10.05059,-2.70867 0.55111,0.55108 -4.71704,3.42882 -11.70712,6.39497 -13.30277,5.64499 -65.74976,14.25433 -61.60857,10.11327 z m 132.50048,-2.75988 c -11.04488,-1.86124 -24.80279,-5.99605 -30.57313,-9.18847 -5.77009,-3.1924 -8.09843,-4.97311 -5.17404,-3.95712 10.37838,3.60566 32.1757,8.9386 51.8414,12.68367 24.7294,4.70938 11.38436,5.0924 -16.09423,0.46192 z M -24.264303,532.84908 c -16.66905,-7.5702 -23.436771,-19.07058 -24.583266,-41.77441 -0.756885,-14.98819 0.218263,-21.60586 4.665965,-31.66032 6.920583,-15.64509 9.472693,-14.65049 3.866224,1.50674 -4.782671,13.78306 -3.894427,37.23893 1.849459,48.83996 9.706574,19.60447 25.344887,22.8 111.683202,22.82122 68.542289,0.0159 82.917239,-2.16867 98.057589,-14.90842 8.97388,-7.5511 11.09113,-3.82001 3.76634,6.63751 -8.88881,12.69064 -16.01368,13.60762 -105.243868,13.54498 -75.3513217,-0.0529 -84.188278,-0.52332 -94.061645,-5.00726 z m 244.524503,1.31663 c -8.79709,-3.90411 -16.95693,-13.482 -16.95693,-19.90357 0,-2.8969 1.49197,-2.49533 5.9817,1.60981 16.57596,15.15672 18.20005,15.39633 104.34741,15.39633 69.19363,0 81.0685,-0.59495 89.66726,-4.49243 20.25057,-9.17893 28.1536,-37.53407 18.59032,-66.7016 -3.98966,-12.16896 -4.34351,-15.04932 -1.36994,-11.15433 7.63982,10.00655 11.41707,22.4326 11.41707,37.55783 0,19.58525 -7.69698,35.88267 -20.79239,44.02565 -9.60634,5.97346 -11.32215,6.09322 -96.18305,6.71362 -68.92512,0.5039 -88.08118,-0.11325 -94.70145,-3.05141 z M -7.9365501,508.85457 c -0.8412676,-1.36116 -0.3136838,-3.22628 1.1723601,-4.1447 3.1726118,-1.96081 8.0189547,0.5279 8.0189547,4.1179 0,3.2349 -7.1956345,3.25588 -9.1913148,0.0269 z M 381.42497,507.34149 c 0,-2.66754 1.74346,-4.04187 4.46341,-3.51809 2.45489,0.47275 4.4634,2.0559 4.4634,3.51809 0,1.4622 -2.00851,3.04536 -4.4634,3.51809 -2.71995,0.52379 -4.46341,-0.85054 -4.46341,-3.51809 z M 118.54819,343.58394 c -12.6485,-3.8457 -19.553512,-8.87575 -25.119941,-18.29927 l -4.814872,-8.15074 10.394068,1.66209 c 11.512235,1.84088 22.172695,-2.67815 42.744675,-18.11973 9.93787,-7.45961 13.47876,-8.60116 25.25607,-8.14245 7.53375,0.29342 17.88474,0.53351 23.00241,0.53351 5.11769,0 15.32671,-0.24006 22.68659,-0.53351 11.61063,-0.46288 15.17545,0.75532 26.93281,9.20373 21.97676,15.7915 29.63413,18.93729 41.48428,17.04237 l 10.54587,-1.68634 -5.50955,8.72164 c -16.09157,25.47259 -61.96215,26.01289 -85.30461,1.00476 -3.54489,-3.79779 -8.4209,-6.90506 -10.83539,-6.90506 -2.41474,0 -7.29049,3.10727 -10.83537,6.90506 -14.13064,15.13913 -41.2801,22.64621 -60.62704,16.76394 z"
       id="path3118"
       inkscape:connector-curvature="0"
       sodipodi:nodetypes="cscsssssssssccsscssscscssscscccccsscscssscscsscscsssssssscsssscscssccssscccssccssssssccssssssscsssss" />
    <path
       style="fill:#080a02"
       d="m 95.632697,716.48153 c -5.84877,-2.8005 -14.22315,-9.13079 -18.60973,-14.06728 l -7.97559,-8.97547 7.97559,7.00746 c 4.38658,3.85411 12.07772,9.07988 17.09118,11.61282 13.131023,6.63405 43.928263,4.34636 66.446303,-4.93583 22.18598,-9.14527 38.39984,-9.14884 61.14386,-0.0133 20.48373,8.22744 48.17766,11.05558 62.37556,6.36987 5.36173,-1.76952 13.60637,-6.21876 18.32128,-9.88719 5.62067,-4.37305 4.9773,-3.37049 -1.86788,2.91138 -18.76128,17.2169 -44.50013,19.03467 -76.33898,5.39129 -25.90634,-11.10112 -38.18584,-11.30687 -62.74536,-1.05131 -26.36334,11.0088 -50.31432,13.06041 -65.816233,5.63774 z m 5.317063,-53.44326 c -12.624833,-3.07348 -24.826693,-10.34373 -28.222713,-16.81596 -2.9741,-5.66813 -2.88211,-5.74706 1.91521,-1.64337 19.43972,16.62957 58.520423,18.97075 78.553523,4.70584 4.17575,-2.97339 11.47555,-6.44527 16.22183,-7.71528 7.12912,-1.90768 7.77196,-1.7593 3.6967,0.85329 -2.71304,1.73931 -9.13738,6.43577 -14.27659,10.43654 -14.92048,11.61588 -36.4413,15.40009 -57.88796,10.17894 z m 141.34409,-0.0713 c -6.68701,-2.14733 -36.33205,-20.97522 -36.33205,-23.075 0,-1.3818 11.23125,3.44003 26.04725,11.18269 10.68677,5.5848 17.74039,7.34125 29.24386,7.28203 19.09943,-0.0983 36.45194,-4.8197 43.45638,-11.82395 4.98581,-4.98587 5.34578,-5.02771 4.51206,-0.5244 -2.25338,12.17183 -46.73408,23.44263 -66.9275,16.95852 z m 133.89487,-47.11714 c -0.18876,-7.34079 5.4569,-16.58164 13.69197,-22.41206 l 8.82474,-6.24811 -8.22603,10.58806 c -4.52429,5.82346 -9.57231,12.98076 -11.21795,15.90515 -1.64563,2.92438 -3.02833,3.8995 -3.07273,2.16696 z m -382.522946,-14.87666 -8.918289,-13.30439 8.2473,5.87259 c 7.088923,5.04776 13.606737,17.31382 10.573168,19.898 -0.541168,0.46099 -4.997136,-5.1488 -9.902179,-12.4662 z m 114.213456,-8.3986 c 0.6431,-0.64313 13.10497,-3.17623 27.69313,-5.62912 14.58791,-2.4529 30.59546,-6.1296 35.57197,-8.17045 4.97678,-2.04085 9.49947,-3.25976 10.05059,-2.70867 0.55111,0.55108 -4.71704,3.42882 -11.70712,6.39497 -13.30277,5.64499 -65.74976,14.25433 -61.60857,10.11327 z m 132.50048,-2.75988 c -11.04488,-1.86124 -24.80279,-5.99605 -30.57313,-9.18847 -5.77009,-3.1924 -8.09843,-4.97311 -5.17404,-3.95712 10.37838,3.60566 32.1757,8.9386 51.8414,12.68367 24.7294,4.70938 11.38436,5.0924 -16.09423,0.46192 z M -24.264303,532.84908 c -16.66905,-7.5702 -23.436771,-19.07058 -24.583266,-41.77441 -0.756885,-14.98819 0.218263,-21.60586 4.665965,-31.66032 6.920583,-15.64509 9.472693,-14.65049 3.866224,1.50674 -4.782671,13.78306 -3.894427,37.23893 1.849459,48.83996 9.706574,19.60447 25.344887,22.8 111.683198,22.82122 68.542293,0.0159 82.917243,-2.16867 98.057593,-14.90842 8.97388,-7.5511 11.09113,-3.82001 3.76634,6.63751 -8.88881,12.69064 -16.01368,13.60762 -105.243873,13.54498 -75.351317,-0.0529 -84.188273,-0.52332 -94.06164,-5.00726 z m 244.524503,1.31663 c -8.79709,-3.90411 -16.95693,-13.482 -16.95693,-19.90357 0,-2.8969 1.49197,-2.49533 5.9817,1.60981 16.57596,15.15672 18.20005,15.39633 104.34741,15.39633 69.19363,0 81.0685,-0.59495 89.66726,-4.49243 20.25057,-9.17893 28.1536,-37.53407 18.59032,-66.7016 -3.98966,-12.16896 -4.34351,-15.04932 -1.36994,-11.15433 7.63982,10.00655 11.41707,22.4326 11.41707,37.55783 0,19.58525 -7.69698,35.88267 -20.79239,44.02565 -9.60634,5.97346 -11.32215,6.09322 -96.18305,6.71362 -68.92512,0.5039 -88.08118,-0.11325 -94.70145,-3.05141 z M -7.93655,508.85457 c -0.841268,-1.36116 -0.313684,-3.22628 1.17236,-4.1447 3.172612,-1.96081 8.018955,0.5279 8.018955,4.1179 0,3.2349 -7.195635,3.25588 -9.191315,0.0269 z m 389.36152,-1.51308 c 0,-2.66754 1.74346,-4.04187 4.46341,-3.51809 2.45489,0.47275 4.4634,2.0559 4.4634,3.51809 0,1.4622 -2.00851,3.04536 -4.4634,3.51809 -2.71995,0.52379 -4.46341,-0.85054 -4.46341,-3.51809 z"
       id="path3118-4"
       inkscape:connector-curvature="0"
       sodipodi:nodetypes="cscsssssssssccsscssscscssscscccccsscscssscscsscscsssssssscsssscscssccssscccssccsssss" />
    <path
       style="fill:#080a02"
       d="m 95.632697,720.48153 c -5.84877,-2.8005 -14.22315,-9.13079 -18.60973,-14.06728 l -7.97559,-8.97547 7.97559,7.00746 c 4.38658,3.85411 12.07772,9.07988 17.09118,11.61282 13.131023,6.63405 43.928263,4.34636 66.446303,-4.93583 22.18598,-9.14527 38.39984,-9.14884 61.14386,-0.0133 20.48373,8.22744 48.17766,11.05558 62.37556,6.36987 5.36173,-1.76952 13.60637,-6.21876 18.32128,-9.88719 5.62067,-4.37305 4.9773,-3.37049 -1.86788,2.91138 -18.76128,17.2169 -44.50013,19.03467 -76.33898,5.39129 -25.90634,-11.10112 -38.18584,-11.30687 -62.74536,-1.05131 -26.36334,11.0088 -50.31432,13.06041 -65.816233,5.63774 z m 5.317063,-53.44326 c -12.624833,-3.07348 -24.826693,-10.34373 -28.222713,-16.81596 -2.9741,-5.66813 -2.88211,-5.74706 1.91521,-1.64337 19.43972,16.62957 58.520423,18.97075 78.553523,4.70584 4.17575,-2.97339 11.47555,-6.44527 16.22183,-7.71528 7.12912,-1.90768 7.77196,-1.7593 3.6967,0.85329 -2.71304,1.73931 -9.13738,6.43577 -14.27659,10.43654 -14.92048,11.61588 -36.4413,15.40009 -57.88796,10.17894 z m 141.34409,-0.0713 c -6.68701,-2.14733 -36.33205,-20.97522 -36.33205,-23.075 0,-1.3818 11.23125,3.44003 26.04725,11.18269 10.68677,5.5848 17.74039,7.34125 29.24386,7.28203 19.09943,-0.0983 36.45194,-4.8197 43.45638,-11.82395 4.98581,-4.98587 5.34578,-5.02771 4.51206,-0.5244 -2.25338,12.17183 -46.73408,23.44263 -66.9275,16.95852 z m 133.89487,-47.11714 c -0.18876,-7.34079 5.4569,-16.58164 13.69197,-22.41206 l 8.82474,-6.24811 -8.22603,10.58806 c -4.52429,5.82346 -9.57231,12.98076 -11.21795,15.90515 -1.64563,2.92438 -3.02833,3.8995 -3.07273,2.16696 z m -382.522946,-14.87666 -8.918289,-13.30439 8.2473,5.87259 c 7.088923,5.04776 13.606737,17.31382 10.573168,19.898 -0.541168,0.46099 -4.997136,-5.1488 -9.902179,-12.4662 z m 114.213456,-8.3986 c 0.6431,-0.64313 13.10497,-3.17623 27.69313,-5.62912 14.58791,-2.4529 30.59546,-6.1296 35.57197,-8.17045 4.97678,-2.04085 9.49947,-3.25976 10.05059,-2.70867 0.55111,0.55108 -4.71704,3.42882 -11.70712,6.39497 -13.30277,5.64499 -65.74976,14.25433 -61.60857,10.11327 z m 132.50048,-2.75988 c -11.04488,-1.86124 -24.80279,-5.99605 -30.57313,-9.18847 -5.77009,-3.1924 -8.09843,-4.97311 -5.17404,-3.95712 10.37838,3.60566 32.1757,8.9386 51.8414,12.68367 24.7294,4.70938 11.38436,5.0924 -16.09423,0.46192 z M -24.264303,536.84908 c -16.66905,-7.5702 -23.436771,-19.07058 -24.583266,-41.77441 -0.756885,-14.98819 0.218263,-21.60586 4.665965,-31.66032 6.920583,-15.64509 9.472693,-14.65049 3.866224,1.50674 -4.782671,13.78306 -3.894427,37.23893 1.849459,48.83996 9.706574,19.60447 25.344887,22.8 111.683198,22.82122 68.542293,0.0159 82.917243,-2.16867 98.057593,-14.90842 8.97388,-7.5511 11.09113,-3.82001 3.76634,6.63751 -8.88881,12.69064 -16.01368,13.60762 -105.243873,13.54498 -75.351317,-0.0529 -84.188273,-0.52332 -94.06164,-5.00726 z m 244.524503,1.31663 c -8.79709,-3.90411 -16.95693,-13.482 -16.95693,-19.90357 0,-2.8969 1.49197,-2.49533 5.9817,1.60981 16.57596,15.15672 18.20005,15.39633 104.34741,15.39633 69.19363,0 81.0685,-0.59495 89.66726,-4.49243 20.25057,-9.17893 28.1536,-37.53407 18.59032,-66.7016 -3.98966,-12.16896 -4.34351,-15.04932 -1.36994,-11.15433 7.63982,10.00655 11.41707,22.4326 11.41707,37.55783 0,19.58525 -7.69698,35.88267 -20.79239,44.02565 -9.60634,5.97346 -11.32215,6.09322 -96.18305,6.71362 -68.92512,0.5039 -88.08118,-0.11325 -94.70145,-3.05141 z M -7.93655,512.85457 c -0.841268,-1.36116 -0.313684,-3.22628 1.17236,-4.1447 3.172612,-1.96081 8.018955,0.5279 8.018955,4.1179 0,3.2349 -7.195635,3.25588 -9.191315,0.0269 z m 389.36152,-1.51308 c 0,-2.66754 1.74346,-4.04187 4.46341,-3.51809 2.45489,0.47275 4.4634,2.0559 4.4634,3.51809 0,1.4622 -2.00851,3.04536 -4.4634,3.51809 -2.71995,0.52379 -4.46341,-0.85054 -4.46341,-3.51809 z"
       id="path3118-4-5"
       inkscape:connector-curvature="0"
       sodipodi:nodetypes="cscsssssssssccsscssscscssscscccccsscscssscscsscscsssssssscsssscscssccssscccssccsssss" />
  </g>
</svg>
