<?xml version="1.0" encoding="UTF-8" standalone="no"?>
<!-- Created with Inkscape (http://www.inkscape.org/) -->

<svg
   xmlns:dc="http://purl.org/dc/elements/1.1/"
   xmlns:cc="http://creativecommons.org/ns#"
   xmlns:rdf="http://www.w3.org/1999/02/22-rdf-syntax-ns#"
   xmlns:svg="http://www.w3.org/2000/svg"
   xmlns="http://www.w3.org/2000/svg"
   xmlns:sodipodi="http://sodipodi.sourceforge.net/DTD/sodipodi-0.dtd"
   xmlns:inkscape="http://www.inkscape.org/namespaces/inkscape"
   width="744.09448819"
   height="1052.3622047"
   id="svg3021"
   version="1.1"
   inkscape:version="0.48.4 r9939"
   sodipodi:docname="chicken.svg">
  <defs
     id="defs3023" />
  <sodipodi:namedview
     id="base"
     pagecolor="#ffffff"
     bordercolor="#666666"
     borderopacity="1.0"
     inkscape:pageopacity="0.0"
     inkscape:pageshadow="2"
     inkscape:zoom="0.35"
     inkscape:cx="375"
     inkscape:cy="520"
     inkscape:document-units="px"
     inkscape:current-layer="layer1"
     showgrid="false"
     inkscape:window-width="1538"
     inkscape:window-height="878"
     inkscape:window-x="54"
     inkscape:window-y="-8"
     inkscape:window-maximized="1" />
  <metadata
     id="metadata3026">
    <rdf:RDF>
      <cc:Work
         rdf:about="">
        <dc:format>image/svg+xml</dc:format>
        <dc:type
           rdf:resource="http://purl.org/dc/dcmitype/StillImage" />
        <dc:title></dc:title>
      </cc:Work>
    </rdf:RDF>
  </metadata>
  <g
     inkscape:label="Layer 1"
     inkscape:groupmode="layer"
     id="layer1">
    <path
       style="fill:#99cb52"
       d="m 530.92118,999.37171 c -17.65744,-2.8531 -34.3694,-7.0995 -37.13771,-9.4366 -2.76827,-2.337 -10.84304,-5.0283 -17.94389,-5.9808 -11.89272,-1.5951 -12.52761,-2.1549 -8.05248,-7.0999 7.3106,-8.0781 6.11235,-13.3168 -8.85122,-38.6976 -7.54019,-12.7895 -21.91489,-38.5818 -31.94375,-57.3163 -10.0289,-18.7345 -20.0838,-35.1456 -22.3443,-36.4693 -2.2604,-1.3235 -10.6187,-12.3959 -18.5738,-24.6052 -21.2969,-32.6857 -26.994,-39.2058 -40.0982,-45.891 -10.7858,-5.5026 -12.6766,-5.621 -20.9787,-1.3138 -5.0185,2.6036 -12.2179,3.9574 -15.9988,3.0085 -10.4172,-2.6145 -15.1348,5.3268 -12.6072,21.222 2.6305,16.5416 26.4389,88.8949 31.5531,95.889 2.5855,3.5359 10.4635,5.5219 25.8486,6.5164 14.2853,0.9234 29.3035,4.4733 42.368,10.0146 22.1606,9.3994 22.4457,8.8276 -8.3462,16.7423 -15.4499,3.9712 -16.776,8.5295 -5.5497,19.076 10.4734,9.8393 10.0829,13.9568 -0.7928,8.3598 -18.524,-9.5331 -65.3055,-24.216 -77.1553,-24.216 -14.0209,0 -15.3706,-2.417 -5.8851,-10.5388 3.601,-3.0833 6.0661,-7.3248 5.4779,-9.4257 -0.5881,-2.1009 -8.485,-26.6527 -17.5486,-54.5596 -9.0636,-27.9069 -17.961,-56.6399 -19.772,-63.8511 -2.7755,-11.0517 -6.9007,-15.8261 -26.2607,-30.3937 -12.6323,-9.5053 -35.0979,-25.1342 -49.9235,-34.7308 -30.6709,-19.8534 -52.215,-41.60055 -55.3493,-55.871 -2.6633,-12.12594 -5.452,-14.44539 -27.1414,-22.57442 -23.359501,-8.75494 -55.135501,-37.80363 -70.939601,-64.85105 l -12.3102,-21.06772 -14.6454,-0.019 c -18.8087004,-0.0222 -38.2909,-5.44312 -40.5299,-11.27779 -0.9623,-2.50765 -5.7972,-4.55938 -10.7442,-4.55938 -11.5191,0 -19.1777,-10.34364 -16.7279,-22.5924 1.5139,-7.56988 0.4875,-9.48369 -6.514,-12.14563 -11.9262,-4.53437 -11.234,-15.5758 1.1315,-18.04889 11.9049,-2.38097 17.5627,-8.53166 12.0024,-13.04795 -2.2017,-1.78835 -10.4249,-5.4343 -18.2737,-8.1021 l -14.2706,-4.8506 11.0993,-4.53542 c 6.1047,-2.49446 13.5967,-5.41483 16.6491,-6.48969 7.7372,-2.7246 6.9236,-10.28884 -2.4248,-22.54527 -8.5381,-11.19397 -21.6248,-41.31131 -25.1767,-57.94107 l -2.1683,-10.15133 12.5298,12.52976 c 12.8618,12.86185 24.7605,16.17663 27.9772,7.79399 2.2568,-5.8811 -8.3137,-26.64324 -19.0109,-37.34047 -7.6345,-7.63442 -15.1752,-28.24583 -19.6468,-53.70154 l -2.0623,-11.7399 16.465,-2.18413 c 14.7524,-1.957 16.2819,-2.8799 14.705,-8.87319 -0.968,-3.67896 -3.9204,-15.96488 -6.5608,-27.30207 -8.4529,-36.29399 -4.9573,-49.97108 6.698,-26.20729 7.0583,14.39106 21.0057,23.38029 26.9904,17.39562 3.1683,-3.16833 3.0767,-6.01731 -0.4575,-14.22413 -2.4307,-5.64424 -4.5198,-18.11105 -4.6426,-27.70405 -0.1966,-15.35505 0.5688,-17.55498 6.3967,-18.38768 3.641,-0.52021 8.4537,1.26361 10.6949,3.96405 6.9141996,8.33117 13.7604996,6.1407 11.9111996,-3.81101 -0.8913,-4.7965 -3.3591,-17.71261 -5.484,-28.70245 -2.1248996,-10.98984 -2.9697996,-20.87523 -1.8774996,-21.9675 2.9949996,-2.99505 19.9502996,14.43327 32.6531,33.56431 6.203,9.34188 23.3323,42.79802 38.0651,74.34698 30.2233,64.72033 46.979501,94.38504 64.395401,114.00389 l 11.9659,13.47955 31.2783,-1.04357 c 50.128,-1.67248 89.3132,-1.7738 122.1447,-0.31585 l 30.6129,1.35942 45.4969,-23.05534 c 25.0233,-12.68042 47.7817,-23.0266 50.5742,-22.99149 7.3992,0.0929 34.00912,-14.6532 49.97686,-27.69527 17.49155,-14.28676 22.81022,-23.0788 38.84123,-64.20688 27.48673,-70.51799 66.74818,-114.89611 125.40801,-141.751476 9.57654,-4.38427 18.18589,-9.98836 19.13184,-12.45349 0.94598,-2.46516 -1.48902,-13.06278 -5.41109,-23.5503 -7.58389,-20.27913 -6.64698,-25.76791 3.33444,-19.53443 9.53665,5.95575 15.44797,4.58587 17.62401,-4.08408 1.09439,-4.36046 3.22927,-7.9281 4.74417,-7.9281 1.51487,0 5.09194,3.56764 7.94904,7.9281 7.86651,12.00584 14.93508,9.88612 23.10423,-6.9285 8.54716,-17.5925797 12.94856,-14.41394971 13.02486,9.40648 0.0596,18.60478 6.53883,22.83407 16.18833,10.56676 8.8132,-11.20422 12.4014,-10.42304 12.4014,2.6999 0,7.74858 1.873,11.99017 6.3537,14.38814 5.7401,3.07204 6.1781,5.60923 4.5354,26.27433 -1.0001,12.58063 -4.023,29.058746 -6.7177,36.617966 -4.8967,13.73664 -4.8943,13.74952 4.5978,23.7843 5.2234,5.52215 11.1457,13.25113 13.1605,17.17554 3.3179,6.46251 2.9248,7.13529 -4.1699,7.13529 -4.3082,0 -11.4938,1.39173 -15.9678,3.09275 -7.3349,2.78876 -8.1345,4.76292 -8.1345,20.08471 0,14.64279 -1.4249,18.61857 -10.3065,28.7576 l -10.30656,11.76562 -17.44183,-3.58639 c -25.14946,-5.17121 -25.72932,-5.15539 -29.59379,0.80861 -2.6778,4.1326 -2.10498,9.57733 2.40278,22.83892 4.88324,14.36626 5.59772,23.12647 4.08377,50.07053 -1.00928,17.96178 -4.31302,44.62091 -7.34171,59.24249 -3.9963,19.29319 -4.64238,28.87446 -2.35547,34.93312 4.03696,10.69513 -0.0993,82.80528 -6.47767,112.92855 -15.21606,71.86145 -37.45562,108.76312 -84.61527,140.40046 l -14.48956,9.72039 -8.9709,36.80289 c -6.91168,28.35517 -11.90911,41.33157 -21.77139,56.53197 -20.0332,30.8767 -45.78628,65.34 -66.32716,88.7606 l -18.82389,21.4628 6.92507,13.4208 c 13.29451,25.7648 46.00313,79.2395 53.25281,87.062 5.22842,5.6416 9.29332,7.3323 14.2885,5.9431 3.83971,-1.0678 17.61225,-3.5725 30.60568,-5.566 17.79941,-2.7309 23.9245,-2.7244 24.8414,0.025 0.66933,2.008 6.89048,3.6509 13.82481,3.6509 15.85109,0 13.8444,3.3357 -8.31975,13.8299 -9.62589,4.5577 -17.50161,10.3267 -17.50161,12.8201 0,2.4934 3.92441,7.4613 8.72092,11.0399 l 8.72091,6.50649 -7.9281,-0.2619 c -4.36046,-0.144 -22.37511,-2.5961 -40.03257,-5.44919 z"
       id="path3060-4"
       inkscape:connector-curvature="0" />
  </g>
</svg>
