<?xml version="1.0" encoding="UTF-8" standalone="no"?>
<!-- Created with Inkscape (http://www.inkscape.org/) -->

<svg
   xmlns:dc="http://purl.org/dc/elements/1.1/"
   xmlns:cc="http://creativecommons.org/ns#"
   xmlns:rdf="http://www.w3.org/1999/02/22-rdf-syntax-ns#"
   xmlns:svg="http://www.w3.org/2000/svg"
   xmlns="http://www.w3.org/2000/svg"
   xmlns:xlink="http://www.w3.org/1999/xlink"
   xmlns:sodipodi="http://sodipodi.sourceforge.net/DTD/sodipodi-0.dtd"
   xmlns:inkscape="http://www.inkscape.org/namespaces/inkscape"
   width="744.09448819"
   height="1052.3622047"
   id="svg2"
   version="1.1"
   inkscape:version="0.48.4 r9939"
   sodipodi:docname="power_icon.svg">
  <defs
     id="defs4" />
  <sodipodi:namedview
     id="base"
     pagecolor="#ffffff"
     bordercolor="#666666"
     borderopacity="1.0"
     inkscape:pageopacity="0.0"
     inkscape:pageshadow="2"
     inkscape:zoom="0.35"
     inkscape:cx="375"
     inkscape:cy="520"
     inkscape:document-units="px"
     inkscape:current-layer="layer1"
     showgrid="false"
     inkscape:window-width="849"
     inkscape:window-height="817"
     inkscape:window-x="50"
     inkscape:window-y="50"
     inkscape:window-maximized="0" />
  <metadata
     id="metadata7">
    <rdf:RDF>
      <cc:Work
         rdf:about="">
        <dc:format>image/svg+xml</dc:format>
        <dc:type
           rdf:resource="http://purl.org/dc/dcmitype/StillImage" />
        <dc:title></dc:title>
      </cc:Work>
    </rdf:RDF>
  </metadata>
  <g
     inkscape:label="Layer 1"
     inkscape:groupmode="layer"
     id="layer1">
    <g
       id="layer1-9"
       inkscape:label="Layer 1"
       transform="translate(-14.516423,131.07634)"
       inkscape:export-filename="C:\Users\abduld\Documents\GitHub\CS598\presentation\ils\power_icon.png"
       inkscape:export-xdpi="90"
       inkscape:export-ydpi="90">
      <use
         transform="translate(2.1936241,1.8469906)"
         height="1"
         width="1"
         y="0"
         x="0"
         style="fill:#a4c639;stroke:#ffffff;stroke-width:14.39999962"
         xlink:href="#b"
         id="use2989" />
      <rect
         style="fill:#a4c639;stroke:#ffffff;stroke-width:19.7472229"
         x="496.28125"
         y="527.00598"
         width="131.64815"
         height="364.77509"
         rx="65.824074"
         id="use2997-7" />
      <g
         transform="matrix(2.7426699,0,0,2.7426699,457.14286,148.51751)"
         style="fill:#a4c639;stroke:#ffffff;stroke-width:7.19999981"
         id="a">
        <rect
           x="-58"
           y="138"
           width="48"
           height="133"
           rx="24"
           id="use2997" />
      </g>
      <g
         transform="matrix(2.7426699,0,0,2.7426699,454.94925,146.67051)"
         id="b"
         style="fill:#a4c639">
        <ellipse
           d="m 91,41 c 0,46.391919 -40.742088,84 -91,84 -50.257912,0 -91,-37.608081 -91,-84 0,-46.391919 40.742088,-84 91,-84 50.257912,0 91,37.608081 91,84 z"
           sodipodi:ry="84"
           sodipodi:rx="91"
           sodipodi:cy="41"
           sodipodi:cx="0"
           cx="0"
           cy="41"
           rx="91"
           ry="84"
           id="ellipse3000" />
        <rect
           rx="22"
           height="182"
           width="182"
           y="20"
           x="-91"
           id="rect3002" />
      </g>
      <path
         inkscape:connector-curvature="0"
         d="M 184.52998,270.56632 H 705.63726"
         id="path3006"
         style="fill:#ffffff;stroke:#ffffff;stroke-width:19.7472229" />
      <circle
         transform="matrix(2.7426699,0,0,2.7426699,457.14286,148.51751)"
         d="m -38,0 c 0,2.209139 -1.790861,4 -4,4 -2.209139,0 -4,-1.790861 -4,-4 0,-2.209139 1.790861,-4 4,-4 2.209139,0 4,1.790861 4,4 z"
         sodipodi:ry="4"
         sodipodi:rx="4"
         sodipodi:cy="0"
         sodipodi:cx="-42"
         cy="0"
         cx="-42"
         r="4"
         id="circle3008"
         style="fill:#ffffff;stroke:#ffffff;stroke-width:7.19999981" />
      <circle
         transform="matrix(2.7426699,0,0,2.7426699,457.14286,148.51751)"
         d="m 46,0 c 0,2.209139 -1.790861,4 -4,4 -2.209139,0 -4,-1.790861 -4,-4 0,-2.209139 1.790861,-4 4,-4 2.209139,0 4,1.790861 4,4 z"
         sodipodi:ry="4"
         sodipodi:rx="4"
         sodipodi:cy="0"
         sodipodi:cx="42"
         cy="0"
         cx="42"
         r="4"
         id="circle3010"
         style="fill:#ffffff;stroke:#ffffff;stroke-width:7.19999981" />
      <rect
         id="c-4"
         rx="65.824074"
         height="483.05215"
         width="131.64815"
         y="-64.311073"
         x="724.2774"
         style="fill:#a4c639;stroke:#ffffff;stroke-width:19.7472229" />
      <rect
         transform="matrix(0,1,-1,0,0,0)"
         id="c-45"
         rx="38.681221"
         height="1172.1106"
         width="83.81163"
         y="-1046.286"
         x="-180.52365"
         style="fill:#a4c639;stroke:#ffffff;stroke-width:19.7472229" />
      <rect
         transform="scale(-1,-1)"
         id="c-4-9-4"
         rx="65.824074"
         height="244.77509"
         width="131.64815"
         y="27.291441"
         x="-93.54631"
         style="fill:#a4c639;stroke:#ffffff;stroke-width:19.7472229" />
      <rect
         transform="scale(-1,-1)"
         id="c-4-9-4-1"
         rx="65.824074"
         height="244.77509"
         width="131.64815"
         y="19.53599"
         x="-960.1098"
         style="fill:#a4c639;stroke:#ffffff;stroke-width:19.7472229" />
      <rect
         id="c-4-1"
         rx="65.824074"
         height="483.05215"
         width="131.64815"
         y="-64.311104"
         x="61.617359"
         style="fill:#a4c639;stroke:#ffffff;stroke-width:19.7472229" />
    </g>
    <g
       id="g3022"
       transform="translate(262.85714,298.07697)"
       style="stroke:#a4c639;stroke-opacity:1"
       inkscape:export-filename="C:\Users\abduld\Documents\GitHub\CS598\presentation\ils\power_icon.png"
       inkscape:export-xdpi="90"
       inkscape:export-ydpi="90">
	<path
   id="path3024"
   d="m 265.568,72.483 c -7.646,-4.394 -17.355,-2.01 -21.575,5.297 -4.217,7.307 -1.925,16.547 5.095,20.536 0,0 0,0 5.813,4.406 29.892,22.655 49.207,58.524 49.207,98.923 0,68.543 -55.565,124.109 -124.108,124.109 -68.543,0 -124.109,-55.566 -124.109,-124.109 0,-39.822 18.771,-75.242 47.934,-97.944 6.177,-4.809 6.177,-4.809 6.177,-4.809 7.521,-4.306 10.222,-13.806 6.003,-21.112 -4.219,-7.306 -13.923,-9.693 -21.566,-5.303 0,0 0,0 -6.408,4.742 C 49.948,105.403 25.247,150.628 25.247,201.645 25.248,287.113 94.534,356.4 180,356.4 c 85.466,0 154.753,-69.287 154.753,-154.755 0,-51.011 -24.696,-96.232 -62.772,-124.417 -6.413,-4.745 -6.413,-4.745 -6.413,-4.745 z"
   inkscape:connector-curvature="0"
   style="stroke:#a4c639;stroke-opacity:1;fill:#677821;fill-opacity:1" />

	<path
   id="path3026"
   d="m 195.325,162.489 c 0,9.103 -6.895,16.549 -15.323,16.549 -8.428,0 -15.324,-7.446 -15.324,-16.549 V 20.148 c 0,-9.102 6.896,-16.549 15.324,-16.549 8.429,0 15.323,7.447 15.323,16.549 v 142.341 z"
   inkscape:connector-curvature="0"
   style="stroke:#a4c639;stroke-opacity:1;fill:#677821;fill-opacity:1" />

</g>
  </g>
</svg>
