<?xml version="1.0" encoding="UTF-8" standalone="no"?>
<!-- Created with Inkscape (http://www.inkscape.org/) -->

<svg
   xmlns:dc="http://purl.org/dc/elements/1.1/"
   xmlns:cc="http://creativecommons.org/ns#"
   xmlns:rdf="http://www.w3.org/1999/02/22-rdf-syntax-ns#"
   xmlns:svg="http://www.w3.org/2000/svg"
   xmlns="http://www.w3.org/2000/svg"
   xmlns:sodipodi="http://sodipodi.sourceforge.net/DTD/sodipodi-0.dtd"
   xmlns:inkscape="http://www.inkscape.org/namespaces/inkscape"
   width="744.09448819"
   height="1052.3622047"
   id="svg3283"
   version="1.1"
   inkscape:version="0.48.4 r9939"
   sodipodi:docname="New document 14">
  <defs
     id="defs3285" />
  <sodipodi:namedview
     id="base"
     pagecolor="#ffffff"
     bordercolor="#666666"
     borderopacity="1.0"
     inkscape:pageopacity="0.0"
     inkscape:pageshadow="2"
     inkscape:zoom="0.35"
     inkscape:cx="375"
     inkscape:cy="520"
     inkscape:document-units="px"
     inkscape:current-layer="layer1"
     showgrid="false"
     inkscape:window-width="1538"
     inkscape:window-height="878"
     inkscape:window-x="54"
     inkscape:window-y="-8"
     inkscape:window-maximized="1" />
  <metadata
     id="metadata3288">
    <rdf:RDF>
      <cc:Work
         rdf:about="">
        <dc:format>image/svg+xml</dc:format>
        <dc:type
           rdf:resource="http://purl.org/dc/dcmitype/StillImage" />
        <dc:title></dc:title>
      </cc:Work>
    </rdf:RDF>
  </metadata>
  <g
     inkscape:label="Layer 1"
     inkscape:groupmode="layer"
     id="layer1">
    <path
       style="fill:#609f15"
       d="m 193.68688,856.01639 c -6.77082,-3.04068 -49.82257,-43.83354 -64.4191,-61.03909 -9.15955,-10.79677 -10.31738,-13.11551 -10.31738,-20.66214 0,-21.30181 20.33689,-36.7498 41.04088,-31.17478 5.03355,1.35538 13.59754,7.48606 26.70394,19.11644 15.94354,14.14799 19.89245,16.80089 22.74013,15.27685 6.20311,-3.31979 28.71501,-28.54443 28.71501,-32.17523 0,-3.14585 -2.18147,-3.69728 -19.39364,-4.90233 -23.13394,-1.61965 -30.2914,-4.20979 -34.87018,-12.61881 -3.12723,-5.74328 -3.51997,-14.10274 -4.45696,-94.86705 -1.12886,-97.30361 -0.16063,-90.40465 -13.17761,-93.90495 -3.64222,-0.97943 -37.27364,-9.97515 -74.736494,-19.99052 -37.46284,-10.01537 -71.59844,-19.74933 -75.85687,-21.63102 -20.6190274,-9.1111 -23.1386574,-33.11494 -5.34384,-50.90975 l 8.2892,-8.2892 12.80497,0.97539 c 7.04273,0.53648 23.44783,3.91464 36.45576,7.50704 67.860754,18.74112 104.628944,28.08546 106.972434,27.18617 1.4371,-0.55146 3.34032,-3.80986 4.22938,-7.24087 l 1.61649,-6.23819 153.83455,0 153.83455,0 2.14036,6.62222 c 2.74857,8.50398 7.58746,9.1708 27.18077,3.7456 8.0811,-2.23757 20.65291,-5.64945 27.93735,-7.58195 7.28445,-1.93251 18.35301,-4.90687 24.59682,-6.60969 6.24381,-1.70284 17.31238,-4.68284 24.59682,-6.62222 7.28444,-1.9394 18.1817,-4.85242 24.21611,-6.47339 22.31047,-5.99307 36.70385,-1.87335 45.01858,12.88535 9.44542,16.76566 4.01249,35.73141 -12.29845,42.93256 -4.25843,1.88007 -41.35351,12.43766 -82.43351,23.46131 -41.08,11.02365 -75.36493,20.71703 -76.18876,21.54086 -0.8238,0.8238 -1.27003,23.15173 -0.99159,49.61761 l 0.50622,48.11979 52.97776,1.38414 c 29.13777,0.76127 54.91495,1.84716 57.28261,2.4131 6.76548,1.61711 18.90573,13.73276 21.43256,21.38909 1.5283,4.63078 2.34079,22.17058 2.42641,52.37992 0.11352,40.0545 -0.26794,46.15386 -3.23006,51.6507 -8.90673,16.52837 -32.86318,19.94988 -48.36334,6.90736 -7.97698,-6.71219 -11.15394,-17.54646 -12.34929,-42.1143 -0.57282,-11.77321 -1.53431,-22.2032 -2.13663,-23.17777 -0.61486,-0.99488 -16.00774,-1.77195 -35.09996,-1.77195 -30.73756,0 -34.10237,0.31815 -35.01976,3.31111 -0.55819,1.82111 -2.67265,6.97838 -4.69877,11.46062 -6.05655,13.39836 -7.86927,13.73278 -81.00604,14.94469 l -63.58052,1.05356 -49.19364,48.6673 c -52.57723,52.0147 -63.83839,62.57608 -70.35496,65.98299 -5.55727,2.90539 -21.02729,2.60929 -28.03231,-0.53657 z M 180.26476,433.91117 c -1.46554,-5.83919 0.42138,-22.60247 4.25564,-37.80696 5.43689,-21.55945 23.87002,-49.58238 44.1995,-67.1941 6.22739,-5.39487 11.32252,-10.63848 11.32252,-11.65245 0,-1.01396 -6.96135,-9.39203 -15.46967,-18.61792 -17.40424,-18.87208 -20.10974,-22.68152 -16.10859,-22.68152 1.46678,0 9.67287,7.6655 18.23576,17.03447 8.71766,9.53832 17.67951,17.56421 20.36518,18.23827 3.15848,0.79272 7.78563,-0.25917 13.55031,-3.08043 24.1778,-11.83266 58.40808,-19.08365 90.5309,-19.17715 11.67698,-0.0341 22.08938,0.46878 23.13866,1.11726 4.57344,2.82653 9.68554,-4.00052 19.10524,-25.51441 5.50071,-12.56322 10.71059,-23.28059 11.57753,-23.81638 3.8161,-2.35848 0.92077,8.73626 -7.06733,27.08153 -4.75394,10.91783 -8.17087,21.08229 -7.59319,22.58771 0.57769,1.50544 3.8287,3.70209 7.22448,4.88147 13.73114,4.76891 39.05417,19.01033 50.62981,28.47367 7.39441,6.04511 16.08401,15.72569 21.81303,24.30062 9.36588,14.01844 17.97088,34.41683 15.54288,36.84482 -1.2335,1.23349 -294.55235,53.59529 -300.78179,53.69404 -1.9451,0.0308 -3.76067,-1.88287 -4.47087,-4.71254 z m 220.64089,-75.6678 c 6.94648,-3.59217 9.42244,-8.16694 9.42244,-17.40963 0,-8.7772 -3.57718,-14.35336 -11.2455,-17.52968 -16.68792,-6.91236 -33.87158,10.54532 -25.78055,26.19166 5.7826,11.1823 16.39314,14.54482 27.60361,8.74765 z"
       id="path3306-5"
       inkscape:connector-curvature="0"
       sodipodi:nodetypes="sssssssssssssscsssscccssssssssssscsssssssssssscsssssssssssssssssssssssssssss" />
  </g>
</svg>
