<svg version="1.1" xmlns="http://www.w3.org/2000/svg" xmlns:xlink="http://www.w3.org/1999/xlink" width="670" height="225"><defs></defs><g transform="translate(0,0)"><g><rect fill="#FFFFFF" stroke="none" x="0" y="0" width="670" height="225"></rect></g><g transform="translate(0,0) matrix(1,0,0,1,279,17)"><g><g transform="translate(0,0) scale(1.2,0.3)"><g><path fill="none" stroke="none" d="M 10 0 L 90 0 Q 100 0 100 10 L 100 90 Q 100 100 90 100 L 10 100 Q 0 100 0 90 L 0 10 Q 0 0 10 0 Z"></path><g transform="scale(0.8333333333333334,3.3333333333333335)"><path fill="#FFFFFF" stroke="#333333" d="M 10 0 L 110 0 Q 120 0 120 10 L 120 20 Q 120 30 110 30 L 10 30 Q 0 30 0 20 L 0 10 Q 0 0 10 0 Z" stroke-miterlimit="10" stroke-width="2"></path></g></g></g></g></g><g transform="scale(1,1) matrix(1,0,0,1,281.4,17) translate(2,8)"><text fill="#000000" stroke="none" font-family="Arial" font-size="12px" font-style="normal" font-weight="normal" text-decoration="none" x="4.600000000000001" y="11">ParboilBenchmark</text></g><g transform="translate(0,0) matrix(1,0,0,1,40,175)"><g><g transform="translate(0,0) scale(1.3,0.3)"><g><path fill="none" stroke="none" d="M 10 0 L 90 0 Q 100 0 100 10 L 100 90 Q 100 100 90 100 L 10 100 Q 0 100 0 90 L 0 10 Q 0 0 10 0 Z"></path><g transform="scale(0.7692307692307692,3.3333333333333335)"><path fill="#FFFFFF" stroke="#333333" d="M 10 0 L 120 0 Q 130 0 130 10 L 130 20 Q 130 30 120 30 L 10 30 Q 0 30 0 20 L 0 10 Q 0 0 10 0 Z" stroke-miterlimit="10" stroke-width="2"></path></g></g></g></g></g><g transform="scale(1,1) matrix(1,0,0,1,42.6,175) translate(2,8)"><text fill="#000000" stroke="none" font-family="Arial" font-size="12px" font-style="normal" font-weight="normal" text-decoration="none" x="16.4" y="11">JavaBenchmark</text></g><g transform="translate(0,0) matrix(1,0,0,1,279,70)"><g><g transform="translate(0,0) scale(1.3,0.3)"><g><path fill="none" stroke="none" d="M 10 0 L 90 0 Q 100 0 100 10 L 100 90 Q 100 100 90 100 L 10 100 Q 0 100 0 90 L 0 10 Q 0 0 10 0 Z"></path><g transform="scale(0.7692307692307692,3.3333333333333335)"><path fill="#FFFFFF" stroke="#333333" d="M 10 0 L 120 0 Q 130 0 130 10 L 130 20 Q 130 30 120 30 L 10 30 Q 0 30 0 20 L 0 10 Q 0 0 10 0 Z" stroke-miterlimit="10" stroke-width="2"></path></g></g></g></g></g><g transform="scale(1,1) matrix(1,0,0,1,281.6,70) translate(2,8)"><text fill="#000000" stroke="none" font-family="Arial" font-size="12px" font-style="normal" font-weight="normal" text-decoration="none" x="7.399999999999999" y="11">SGEMMBenchmark</text></g><g transform="translate(0,0) matrix(1,0,0,1,210,175)"><g><g transform="translate(0,0) scale(1.3,0.3)"><g><path fill="none" stroke="none" d="M 10 0 L 90 0 Q 100 0 100 10 L 100 90 Q 100 100 90 100 L 10 100 Q 0 100 0 90 L 0 10 Q 0 0 10 0 Z"></path><g transform="scale(0.7692307692307692,3.3333333333333335)"><path fill="#FFFFFF" stroke="#333333" d="M 10 0 L 120 0 Q 130 0 130 10 L 130 20 Q 130 30 120 30 L 10 30 Q 0 30 0 20 L 0 10 Q 0 0 10 0 Z" stroke-miterlimit="10" stroke-width="2"></path></g></g></g></g></g><g transform="scale(1,1) matrix(1,0,0,1,212.6,175) translate(2,8)"><text fill="#000000" stroke="none" font-family="Arial" font-size="12px" font-style="normal" font-weight="normal" text-decoration="none" x="20.4" y="11">RSBenchmark</text></g><g transform="translate(0,0) matrix(1,0,0,1,360,175)"><g><g transform="translate(0,0) scale(1.3,0.3)"><g><path fill="none" stroke="none" d="M 10 0 L 90 0 Q 100 0 100 10 L 100 90 Q 100 100 90 100 L 10 100 Q 0 100 0 90 L 0 10 Q 0 0 10 0 Z"></path><g transform="scale(0.7692307692307692,3.3333333333333335)"><path fill="#FFFFFF" stroke="#333333" d="M 10 0 L 120 0 Q 130 0 130 10 L 130 20 Q 130 30 120 30 L 10 30 Q 0 30 0 20 L 0 10 Q 0 0 10 0 Z" stroke-miterlimit="10" stroke-width="2"></path></g></g></g></g></g><g transform="scale(1,1) matrix(1,0,0,1,362.6,175) translate(2,8)"><text fill="#000000" stroke="none" font-family="Arial" font-size="12px" font-style="normal" font-weight="normal" text-decoration="none" x="2.3999999999999986" y="11">ThreadedBenchmark</text></g><g transform="translate(0,0) matrix(1,0,0,1,520,175)"><g><g transform="translate(0,0) scale(1.3,0.3)"><g><path fill="none" stroke="none" d="M 10 0 L 90 0 Q 100 0 100 10 L 100 90 Q 100 100 90 100 L 10 100 Q 0 100 0 90 L 0 10 Q 0 0 10 0 Z"></path><g transform="scale(0.7692307692307692,3.3333333333333335)"><path fill="#FFFFFF" stroke="#333333" d="M 10 0 L 120 0 Q 130 0 130 10 L 130 20 Q 130 30 120 30 L 10 30 Q 0 30 0 20 L 0 10 Q 0 0 10 0 Z" stroke-miterlimit="10" stroke-width="2"></path></g></g></g></g></g><g transform="scale(1,1) matrix(1,0,0,1,522.6,175) translate(2,8)"><text fill="#000000" stroke="none" font-family="Arial" font-size="12px" font-style="normal" font-weight="normal" text-decoration="none" x="5.899999999999999" y="11">OpenCLBenchmark</text></g><g transform="matrix(1,0,0,1,323.5,42.5)"><g transform="translate(0,0)"><g transform="translate(-328,-47) translate(4.5,4.5) matrix(1,0,0,1,0,0)"><g><path fill="none" stroke="#000000" d="M 328 47 L 328 50.83695481107378 Q 328 54.673909622147555 328 58.51086443322133 L 328 58.51086443322133 Q 328 62.3478192442951 328 66.18477405536888 L 328 70.02172886644266" stroke-miterlimit="10" stroke-width="2"></path></g></g></g></g><g transform="matrix(1,0,0,1,108.5,95.5)"><g transform="translate(0,0)"><g transform="translate(-324,-111) translate(215.5,15.5) matrix(1,0,0,1,0,0)"><g><path fill="none" stroke="#000000" d="M 317.0761184457488 100 L 317.0761184457488 127.5 Q 317.0761184457488 137.5 307.0761184457488 137.5 L 123 137.5 Q 113 137.5 113 147.5 L 113 175" stroke-miterlimit="10" stroke-width="2"></path></g></g></g></g><g transform="matrix(1,0,0,1,270.5,95.5)"><g transform="translate(0,0)"><g transform="translate(-342,-114) translate(71.5,18.5) matrix(1,0,0,1,0,0)"><g><path fill="none" stroke="#000000" d="M 317.0761184457488 100 L 317.0761184457488 127.5 Q 317.0761184457488 137.5 307.0761184457488 137.5 L 285 137.5 Q 275 137.5 275 147.5 L 275 175" stroke-miterlimit="10" stroke-width="2"></path></g></g></g></g><g transform="matrix(1,0,0,1,351.5,95.5)"><g transform="translate(0,0)"><g transform="translate(-356,-106) translate(4.5,10.5) matrix(1,0,0,1,0,0)"><g><path fill="none" stroke="#000000" d="M 356 100 L 356 127.5 Q 356 137.5 366 137.5 L 415 137.5 Q 425 137.5 425 147.5 L 425 175" stroke-miterlimit="10" stroke-width="2"></path></g></g></g></g><g transform="matrix(1,0,0,1,351.5,95.5)"><g transform="translate(0,0)"><g transform="translate(-361,-111) translate(9.5,15.5) matrix(1,0,0,1,0,0)"><g><path fill="none" stroke="#000000" d="M 356 100 L 356 128.5 Q 356 138.5 366 138.5 L 581 138.5 Q 591 138.5 591 148.5 L 591 175" stroke-miterlimit="10" stroke-width="2"></path></g></g></g></g></g></svg>